<mxfile host="app.diagrams.net" modified="2024-06-28T15:42:45.934Z" agent="Mozilla/5.0 (Macintosh; Intel Mac OS X 10.15; rv:127.0) Gecko/20100101 Firefox/127.0" etag="RwpN-oSk_B2EhAFdvEmb" version="24.6.4" type="github">
  <diagram id="C5RBs43oDa-KdzZeNtuy" name="Page-1">
    <mxGraphModel dx="2074" dy="1093" grid="1" gridSize="10" guides="1" tooltips="1" connect="1" arrows="1" fold="1" page="1" pageScale="1" pageWidth="827" pageHeight="1169" math="0" shadow="0">
      <root>
        <mxCell id="WIyWlLk6GJQsqaUBKTNV-0" />
        <mxCell id="WIyWlLk6GJQsqaUBKTNV-1" parent="WIyWlLk6GJQsqaUBKTNV-0" />
        <mxCell id="WIyWlLk6GJQsqaUBKTNV-2" value="" style="rounded=0;html=1;jettySize=auto;orthogonalLoop=1;fontSize=11;endArrow=block;endFill=0;endSize=8;strokeWidth=1;shadow=0;labelBackgroundColor=none;edgeStyle=orthogonalEdgeStyle;" parent="WIyWlLk6GJQsqaUBKTNV-1" source="WIyWlLk6GJQsqaUBKTNV-3" edge="1">
          <mxGeometry relative="1" as="geometry">
            <mxPoint x="220" y="170" as="targetPoint" />
          </mxGeometry>
        </mxCell>
        <mxCell id="WIyWlLk6GJQsqaUBKTNV-3" value="ตื่น" style="rounded=1;whiteSpace=wrap;html=1;fontSize=12;glass=0;strokeWidth=1;shadow=0;" parent="WIyWlLk6GJQsqaUBKTNV-1" vertex="1">
          <mxGeometry x="160" y="110" width="120" height="40" as="geometry" />
        </mxCell>
        <mxCell id="WIyWlLk6GJQsqaUBKTNV-4" value="เปิด" style="rounded=0;html=1;jettySize=auto;orthogonalLoop=1;fontSize=11;endArrow=block;endFill=0;endSize=8;strokeWidth=1;shadow=0;labelBackgroundColor=none;edgeStyle=orthogonalEdgeStyle;" parent="WIyWlLk6GJQsqaUBKTNV-1" source="WIyWlLk6GJQsqaUBKTNV-6" edge="1">
          <mxGeometry x="0.5" y="20" relative="1" as="geometry">
            <mxPoint as="offset" />
            <mxPoint x="220" y="290" as="targetPoint" />
          </mxGeometry>
        </mxCell>
        <mxCell id="WIyWlLk6GJQsqaUBKTNV-5" value="ยังไม่เปิด" style="edgeStyle=orthogonalEdgeStyle;rounded=0;html=1;jettySize=auto;orthogonalLoop=1;fontSize=11;endArrow=block;endFill=0;endSize=8;strokeWidth=1;shadow=0;labelBackgroundColor=none;" parent="WIyWlLk6GJQsqaUBKTNV-1" source="WIyWlLk6GJQsqaUBKTNV-6" edge="1">
          <mxGeometry x="0.2157" y="10" relative="1" as="geometry">
            <mxPoint as="offset" />
            <mxPoint x="320" y="210" as="targetPoint" />
          </mxGeometry>
        </mxCell>
        <mxCell id="WIyWlLk6GJQsqaUBKTNV-6" value="ส่วนกลางเปิด?" style="rhombus;whiteSpace=wrap;html=1;shadow=0;fontFamily=Helvetica;fontSize=12;align=center;strokeWidth=1;spacing=6;spacingTop=-4;" parent="WIyWlLk6GJQsqaUBKTNV-1" vertex="1">
          <mxGeometry x="170" y="170" width="100" height="80" as="geometry" />
        </mxCell>
        <mxCell id="z6gZQPteTcdYFR8JAIx2-1" value="" style="edgeStyle=orthogonalEdgeStyle;rounded=0;orthogonalLoop=1;jettySize=auto;html=1;entryX=0.5;entryY=0;entryDx=0;entryDy=0;" edge="1" parent="WIyWlLk6GJQsqaUBKTNV-1" source="z6gZQPteTcdYFR8JAIx2-0" target="WIyWlLk6GJQsqaUBKTNV-3">
          <mxGeometry relative="1" as="geometry" />
        </mxCell>
        <mxCell id="z6gZQPteTcdYFR8JAIx2-0" value="เรื่มต้น" style="ellipse;whiteSpace=wrap;html=1;" vertex="1" parent="WIyWlLk6GJQsqaUBKTNV-1">
          <mxGeometry x="160" y="10" width="120" height="70" as="geometry" />
        </mxCell>
        <mxCell id="z6gZQPteTcdYFR8JAIx2-4" style="edgeStyle=orthogonalEdgeStyle;rounded=0;orthogonalLoop=1;jettySize=auto;html=1;entryX=1;entryY=1;entryDx=0;entryDy=0;" edge="1" parent="WIyWlLk6GJQsqaUBKTNV-1" source="z6gZQPteTcdYFR8JAIx2-3" target="WIyWlLk6GJQsqaUBKTNV-6">
          <mxGeometry relative="1" as="geometry">
            <mxPoint x="400" y="250" as="targetPoint" />
            <Array as="points">
              <mxPoint x="380" y="250" />
              <mxPoint x="245" y="250" />
            </Array>
          </mxGeometry>
        </mxCell>
        <mxCell id="z6gZQPteTcdYFR8JAIx2-3" value="รอส่วนกลางเปิด" style="rounded=1;whiteSpace=wrap;html=1;" vertex="1" parent="WIyWlLk6GJQsqaUBKTNV-1">
          <mxGeometry x="320" y="180" width="120" height="60" as="geometry" />
        </mxCell>
        <mxCell id="z6gZQPteTcdYFR8JAIx2-11" style="edgeStyle=orthogonalEdgeStyle;rounded=0;orthogonalLoop=1;jettySize=auto;html=1;entryX=0.5;entryY=0;entryDx=0;entryDy=0;" edge="1" parent="WIyWlLk6GJQsqaUBKTNV-1" source="z6gZQPteTcdYFR8JAIx2-6" target="z6gZQPteTcdYFR8JAIx2-9">
          <mxGeometry relative="1" as="geometry" />
        </mxCell>
        <mxCell id="z6gZQPteTcdYFR8JAIx2-6" value="ขึ้นลิฟต์ไปซักผ้า" style="rounded=1;whiteSpace=wrap;html=1;" vertex="1" parent="WIyWlLk6GJQsqaUBKTNV-1">
          <mxGeometry x="160" y="290" width="120" height="60" as="geometry" />
        </mxCell>
        <mxCell id="z6gZQPteTcdYFR8JAIx2-15" value="" style="edgeStyle=orthogonalEdgeStyle;rounded=0;orthogonalLoop=1;jettySize=auto;html=1;" edge="1" parent="WIyWlLk6GJQsqaUBKTNV-1" source="z6gZQPteTcdYFR8JAIx2-9" target="z6gZQPteTcdYFR8JAIx2-14">
          <mxGeometry relative="1" as="geometry" />
        </mxCell>
        <mxCell id="z6gZQPteTcdYFR8JAIx2-18" style="edgeStyle=orthogonalEdgeStyle;rounded=0;orthogonalLoop=1;jettySize=auto;html=1;exitX=0.5;exitY=1;exitDx=0;exitDy=0;" edge="1" parent="WIyWlLk6GJQsqaUBKTNV-1" source="z6gZQPteTcdYFR8JAIx2-9">
          <mxGeometry relative="1" as="geometry">
            <mxPoint x="220" y="530" as="targetPoint" />
          </mxGeometry>
        </mxCell>
        <mxCell id="z6gZQPteTcdYFR8JAIx2-9" value="เครื่องซักผ้าว่าง?" style="rhombus;whiteSpace=wrap;html=1;shadow=0;fontFamily=Helvetica;fontSize=12;align=center;strokeWidth=1;spacing=6;spacingTop=-4;" vertex="1" parent="WIyWlLk6GJQsqaUBKTNV-1">
          <mxGeometry x="170" y="390" width="100" height="80" as="geometry" />
        </mxCell>
        <mxCell id="z6gZQPteTcdYFR8JAIx2-16" style="edgeStyle=orthogonalEdgeStyle;rounded=0;orthogonalLoop=1;jettySize=auto;html=1;entryX=1;entryY=1;entryDx=0;entryDy=0;" edge="1" parent="WIyWlLk6GJQsqaUBKTNV-1" source="z6gZQPteTcdYFR8JAIx2-14" target="z6gZQPteTcdYFR8JAIx2-9">
          <mxGeometry relative="1" as="geometry">
            <mxPoint x="380" y="500" as="targetPoint" />
            <Array as="points">
              <mxPoint x="400" y="490" />
              <mxPoint x="245" y="490" />
            </Array>
          </mxGeometry>
        </mxCell>
        <mxCell id="z6gZQPteTcdYFR8JAIx2-14" value="รอ" style="rounded=1;whiteSpace=wrap;html=1;shadow=0;strokeWidth=1;spacing=6;spacingTop=-4;" vertex="1" parent="WIyWlLk6GJQsqaUBKTNV-1">
          <mxGeometry x="340" y="400" width="120" height="60" as="geometry" />
        </mxCell>
        <mxCell id="z6gZQPteTcdYFR8JAIx2-17" value="ไม่ว่าง" style="text;html=1;align=center;verticalAlign=middle;resizable=0;points=[];autosize=1;strokeColor=none;fillColor=none;" vertex="1" parent="WIyWlLk6GJQsqaUBKTNV-1">
          <mxGeometry x="275" y="398" width="50" height="30" as="geometry" />
        </mxCell>
        <mxCell id="z6gZQPteTcdYFR8JAIx2-19" value="ว่าง" style="text;html=1;align=center;verticalAlign=middle;resizable=0;points=[];autosize=1;strokeColor=none;fillColor=none;" vertex="1" parent="WIyWlLk6GJQsqaUBKTNV-1">
          <mxGeometry x="180" y="488" width="40" height="30" as="geometry" />
        </mxCell>
        <mxCell id="z6gZQPteTcdYFR8JAIx2-23" value="" style="edgeStyle=orthogonalEdgeStyle;rounded=0;orthogonalLoop=1;jettySize=auto;html=1;" edge="1" parent="WIyWlLk6GJQsqaUBKTNV-1" source="z6gZQPteTcdYFR8JAIx2-21" target="z6gZQPteTcdYFR8JAIx2-22">
          <mxGeometry relative="1" as="geometry" />
        </mxCell>
        <mxCell id="z6gZQPteTcdYFR8JAIx2-21" value="&lt;div&gt;นำผ้าใส่ให้เยอะที่สุด&lt;/div&gt;&lt;div&gt;และใส่นำ้ยาซักผ้า นำ้ยาปรับผ้านุ่ม แล้วเริ่มซักผ้า&lt;br&gt;&lt;/div&gt;" style="rounded=1;whiteSpace=wrap;html=1;" vertex="1" parent="WIyWlLk6GJQsqaUBKTNV-1">
          <mxGeometry x="160" y="530" width="120" height="60" as="geometry" />
        </mxCell>
        <mxCell id="z6gZQPteTcdYFR8JAIx2-25" style="edgeStyle=orthogonalEdgeStyle;rounded=0;orthogonalLoop=1;jettySize=auto;html=1;entryX=0.5;entryY=0;entryDx=0;entryDy=0;" edge="1" parent="WIyWlLk6GJQsqaUBKTNV-1" source="z6gZQPteTcdYFR8JAIx2-22" target="z6gZQPteTcdYFR8JAIx2-24">
          <mxGeometry relative="1" as="geometry" />
        </mxCell>
        <mxCell id="z6gZQPteTcdYFR8JAIx2-22" value="รอ" style="whiteSpace=wrap;html=1;rounded=1;" vertex="1" parent="WIyWlLk6GJQsqaUBKTNV-1">
          <mxGeometry x="160" y="610" width="120" height="60" as="geometry" />
        </mxCell>
        <mxCell id="z6gZQPteTcdYFR8JAIx2-31" value="" style="edgeStyle=orthogonalEdgeStyle;rounded=0;orthogonalLoop=1;jettySize=auto;html=1;" edge="1" parent="WIyWlLk6GJQsqaUBKTNV-1" source="z6gZQPteTcdYFR8JAIx2-24" target="z6gZQPteTcdYFR8JAIx2-30">
          <mxGeometry relative="1" as="geometry" />
        </mxCell>
        <mxCell id="z6gZQPteTcdYFR8JAIx2-24" value="เครื่องอบว่าง" style="rhombus;whiteSpace=wrap;html=1;" vertex="1" parent="WIyWlLk6GJQsqaUBKTNV-1">
          <mxGeometry x="180" y="700" width="80" height="50" as="geometry" />
        </mxCell>
        <mxCell id="z6gZQPteTcdYFR8JAIx2-26" value="" style="edgeStyle=orthogonalEdgeStyle;rounded=0;orthogonalLoop=1;jettySize=auto;html=1;exitX=1;exitY=0.5;exitDx=0;exitDy=0;" edge="1" parent="WIyWlLk6GJQsqaUBKTNV-1" target="z6gZQPteTcdYFR8JAIx2-28" source="z6gZQPteTcdYFR8JAIx2-24">
          <mxGeometry relative="1" as="geometry">
            <mxPoint x="270" y="720" as="sourcePoint" />
          </mxGeometry>
        </mxCell>
        <mxCell id="z6gZQPteTcdYFR8JAIx2-27" style="edgeStyle=orthogonalEdgeStyle;rounded=0;orthogonalLoop=1;jettySize=auto;html=1;entryX=0.823;entryY=0.643;entryDx=0;entryDy=0;entryPerimeter=0;" edge="1" parent="WIyWlLk6GJQsqaUBKTNV-1" source="z6gZQPteTcdYFR8JAIx2-28" target="z6gZQPteTcdYFR8JAIx2-24">
          <mxGeometry relative="1" as="geometry">
            <mxPoint x="245" y="742" as="targetPoint" />
            <Array as="points">
              <mxPoint x="400" y="782" />
              <mxPoint x="246" y="782" />
            </Array>
          </mxGeometry>
        </mxCell>
        <mxCell id="z6gZQPteTcdYFR8JAIx2-28" value="รอ" style="rounded=1;whiteSpace=wrap;html=1;shadow=0;strokeWidth=1;spacing=6;spacingTop=-4;" vertex="1" parent="WIyWlLk6GJQsqaUBKTNV-1">
          <mxGeometry x="340" y="695" width="120" height="60" as="geometry" />
        </mxCell>
        <mxCell id="z6gZQPteTcdYFR8JAIx2-29" value="ไม่ว่าง" style="text;html=1;align=center;verticalAlign=middle;resizable=0;points=[];autosize=1;strokeColor=none;fillColor=none;" vertex="1" parent="WIyWlLk6GJQsqaUBKTNV-1">
          <mxGeometry x="275" y="690" width="50" height="30" as="geometry" />
        </mxCell>
        <mxCell id="z6gZQPteTcdYFR8JAIx2-34" value="" style="edgeStyle=orthogonalEdgeStyle;rounded=0;orthogonalLoop=1;jettySize=auto;html=1;" edge="1" parent="WIyWlLk6GJQsqaUBKTNV-1" source="z6gZQPteTcdYFR8JAIx2-30" target="z6gZQPteTcdYFR8JAIx2-33">
          <mxGeometry relative="1" as="geometry" />
        </mxCell>
        <mxCell id="z6gZQPteTcdYFR8JAIx2-36" value="" style="edgeStyle=orthogonalEdgeStyle;rounded=0;orthogonalLoop=1;jettySize=auto;html=1;" edge="1" parent="WIyWlLk6GJQsqaUBKTNV-1" source="z6gZQPteTcdYFR8JAIx2-30" target="z6gZQPteTcdYFR8JAIx2-35">
          <mxGeometry relative="1" as="geometry" />
        </mxCell>
        <mxCell id="z6gZQPteTcdYFR8JAIx2-30" value="เครื่องอบว่าง &amp;gt; 1 เครื่อง" style="rhombus;whiteSpace=wrap;html=1;" vertex="1" parent="WIyWlLk6GJQsqaUBKTNV-1">
          <mxGeometry x="160" y="815" width="120" height="65" as="geometry" />
        </mxCell>
        <mxCell id="z6gZQPteTcdYFR8JAIx2-38" style="edgeStyle=orthogonalEdgeStyle;rounded=0;orthogonalLoop=1;jettySize=auto;html=1;entryX=0.5;entryY=0;entryDx=0;entryDy=0;" edge="1" parent="WIyWlLk6GJQsqaUBKTNV-1" source="z6gZQPteTcdYFR8JAIx2-33" target="z6gZQPteTcdYFR8JAIx2-39">
          <mxGeometry relative="1" as="geometry">
            <mxPoint x="420" y="940" as="targetPoint" />
            <Array as="points" />
          </mxGeometry>
        </mxCell>
        <mxCell id="z6gZQPteTcdYFR8JAIx2-33" value="อบผ้าทั้งหมด 45 นาที" style="whiteSpace=wrap;html=1;" vertex="1" parent="WIyWlLk6GJQsqaUBKTNV-1">
          <mxGeometry x="360" y="817.5" width="120" height="60" as="geometry" />
        </mxCell>
        <mxCell id="z6gZQPteTcdYFR8JAIx2-37" style="edgeStyle=orthogonalEdgeStyle;rounded=0;orthogonalLoop=1;jettySize=auto;html=1;" edge="1" parent="WIyWlLk6GJQsqaUBKTNV-1" source="z6gZQPteTcdYFR8JAIx2-35" target="z6gZQPteTcdYFR8JAIx2-39">
          <mxGeometry relative="1" as="geometry">
            <mxPoint x="420" y="940" as="targetPoint" />
          </mxGeometry>
        </mxCell>
        <mxCell id="z6gZQPteTcdYFR8JAIx2-35" value="แบ่งผ้าอบ เครื่องละ 30 นาที" style="whiteSpace=wrap;html=1;" vertex="1" parent="WIyWlLk6GJQsqaUBKTNV-1">
          <mxGeometry x="160" y="910" width="120" height="60" as="geometry" />
        </mxCell>
        <mxCell id="z6gZQPteTcdYFR8JAIx2-43" value="" style="edgeStyle=orthogonalEdgeStyle;rounded=0;orthogonalLoop=1;jettySize=auto;html=1;" edge="1" parent="WIyWlLk6GJQsqaUBKTNV-1" source="z6gZQPteTcdYFR8JAIx2-39" target="z6gZQPteTcdYFR8JAIx2-42">
          <mxGeometry relative="1" as="geometry" />
        </mxCell>
        <mxCell id="z6gZQPteTcdYFR8JAIx2-39" value="" style="ellipse;whiteSpace=wrap;html=1;aspect=fixed;" vertex="1" parent="WIyWlLk6GJQsqaUBKTNV-1">
          <mxGeometry x="410" y="930" width="20" height="20" as="geometry" />
        </mxCell>
        <mxCell id="z6gZQPteTcdYFR8JAIx2-42" value="นำผ้าออกแล้วกลับห้องเข้าตู้เสื้อผ้า" style="whiteSpace=wrap;html=1;" vertex="1" parent="WIyWlLk6GJQsqaUBKTNV-1">
          <mxGeometry x="360" y="970" width="120" height="60" as="geometry" />
        </mxCell>
      </root>
    </mxGraphModel>
  </diagram>
</mxfile>
